<svg width="49" height="49" viewBox="0 0 49 49" fill="none" xmlns="http://www.w3.org/2000/svg">
<path fill-rule="evenodd" clip-rule="evenodd" d="M0 5.25C0 3.85761 0.553124 2.52226 1.53769 1.53769C2.52226 0.553124 3.85761 0 5.25 0H8.75C10.1424 0 11.4777 0.553124 12.4623 1.53769C13.4469 2.52226 14 3.85761 14 5.25H28.469C28.8542 4.58275 29.4489 4.06127 30.1607 3.76642C30.8725 3.47158 31.6617 3.41985 32.406 3.61926C33.1502 3.81867 33.8078 4.25808 34.2768 4.86934C34.7459 5.48059 35.0001 6.22953 35.0001 7C35.0001 7.77047 34.7459 8.51941 34.2768 9.13066C33.8078 9.74192 33.1502 10.1813 32.406 10.3807C31.6617 10.5802 30.8725 10.5284 30.1607 10.2336C29.4489 9.93873 28.8542 9.41725 28.469 8.75H21.434C22.0617 9.38 22.6263 10.0858 23.128 10.8675C25.361 14.3395 26.25 19.1065 26.25 24.5C26.25 31.4755 27.1495 35.322 28.7455 37.45C29.9915 39.116 31.878 39.9735 35 40.194C35.0147 38.8113 35.5744 37.4903 36.5574 36.5178C37.5403 35.5454 38.8673 34.9999 40.25 35H43.75C45.1424 35 46.4777 35.5531 47.4623 36.5377C48.4469 37.5223 49 38.8576 49 40.25V43.75C49 45.1424 48.4469 46.4777 47.4623 47.4623C46.4777 48.4469 45.1424 49 43.75 49H40.25C38.8576 49 37.5223 48.4469 36.5377 47.4623C35.5531 46.4777 35 45.1424 35 43.75H20.531C20.1458 44.4172 19.5511 44.9387 18.8393 45.2336C18.1275 45.5284 17.3383 45.5802 16.594 45.3807C15.8498 45.1813 15.1922 44.7419 14.7232 44.1307C14.2541 43.5194 13.9999 42.7705 13.9999 42C13.9999 41.2295 14.2541 40.4806 14.7232 39.8693C15.1922 39.2581 15.8498 38.8187 16.594 38.6193C17.3383 38.4198 18.1275 38.4716 18.8393 38.7664C19.5511 39.0613 20.1458 39.5828 20.531 40.25H26.5195C26.317 40.0251 26.1243 39.7915 25.942 39.55C23.6005 36.4245 22.75 31.5245 22.75 24.5C22.75 19.39 21.889 15.4105 20.1845 12.7575C18.8195 10.64 16.8525 9.2575 14 8.8655C13.9698 10.2378 13.4034 11.5436 12.4221 12.5034C11.4408 13.4631 10.1226 14.0003 8.75 14H5.25C3.85761 14 2.52226 13.4469 1.53769 12.4623C0.553124 11.4777 0 10.1424 0 8.75V5.25ZM5.25 3.5C4.78587 3.5 4.34075 3.68437 4.01256 4.01256C3.68437 4.34075 3.5 4.78587 3.5 5.25V8.75C3.5 9.21413 3.68437 9.65925 4.01256 9.98744C4.34075 10.3156 4.78587 10.5 5.25 10.5H8.75C9.21413 10.5 9.65925 10.3156 9.98744 9.98744C10.3156 9.65925 10.5 9.21413 10.5 8.75V5.25C10.5 4.78587 10.3156 4.34075 9.98744 4.01256C9.65925 3.68437 9.21413 3.5 8.75 3.5H5.25ZM40.25 38.5C39.7859 38.5 39.3408 38.6844 39.0126 39.0126C38.6844 39.3408 38.5 39.7859 38.5 40.25V43.75C38.5 44.2141 38.6844 44.6592 39.0126 44.9874C39.3408 45.3156 39.7859 45.5 40.25 45.5H43.75C44.2141 45.5 44.6592 45.3156 44.9874 44.9874C45.3156 44.6592 45.5 44.2141 45.5 43.75V40.25C45.5 39.7859 45.3156 39.3408 44.9874 39.0126C44.6592 38.6844 44.2141 38.5 43.75 38.5H40.25Z" fill="#019D8B" fill-opacity="0.25"/>
</svg>
