<svg width="214" height="213" viewBox="0 0 214 213" fill="none" xmlns="http://www.w3.org/2000/svg">
<path d="M107 159.75C121.123 159.75 134.667 154.14 144.653 144.153C154.64 134.167 160.25 120.623 160.25 106.5C160.25 92.3772 154.64 78.8329 144.653 68.8466C134.667 58.8602 121.123 53.25 107 53.25C92.8772 53.25 79.3329 58.8602 69.3466 68.8466C59.3602 78.8329 53.75 92.3772 53.75 106.5C53.75 120.623 59.3602 134.167 69.3466 144.153C79.3329 154.14 92.8772 159.75 107 159.75ZM107 0C108.765 0 110.458 0.701282 111.707 1.94957C112.955 3.19786 113.656 4.8909 113.656 6.65625V33.2812C113.656 35.0466 112.955 36.7396 111.707 37.9879C110.458 39.2362 108.765 39.9375 107 39.9375C105.235 39.9375 103.542 39.2362 102.293 37.9879C101.045 36.7396 100.344 35.0466 100.344 33.2812V6.65625C100.344 4.8909 101.045 3.19786 102.293 1.94957C103.542 0.701282 105.235 0 107 0ZM107 173.062C108.765 173.062 110.458 173.764 111.707 175.012C112.955 176.26 113.656 177.953 113.656 179.719V206.344C113.656 208.109 112.955 209.802 111.707 211.05C110.458 212.299 108.765 213 107 213C105.235 213 103.542 212.299 102.293 211.05C101.045 209.802 100.344 208.109 100.344 206.344V179.719C100.344 177.953 101.045 176.26 102.293 175.012C103.542 173.764 105.235 173.062 107 173.062ZM213.5 106.5C213.5 108.265 212.799 109.958 211.55 111.207C210.302 112.455 208.609 113.156 206.844 113.156H180.219C178.453 113.156 176.76 112.455 175.512 111.207C174.264 109.958 173.562 108.265 173.562 106.5C173.562 104.735 174.264 103.042 175.512 101.793C176.76 100.545 178.453 99.8438 180.219 99.8438H206.844C208.609 99.8438 210.302 100.545 211.55 101.793C212.799 103.042 213.5 104.735 213.5 106.5ZM40.4375 106.5C40.4375 108.265 39.7362 109.958 38.4879 111.207C37.2396 112.455 35.5466 113.156 33.7812 113.156H7.15625C5.3909 113.156 3.69786 112.455 2.44957 111.207C1.20128 109.958 0.5 108.265 0.5 106.5C0.5 104.735 1.20128 103.042 2.44957 101.793C3.69786 100.545 5.3909 99.8438 7.15625 99.8438H33.7812C35.5466 99.8438 37.2396 100.545 38.4879 101.793C39.7362 103.042 40.4375 104.735 40.4375 106.5ZM182.309 31.1912C183.557 32.4394 184.258 34.1322 184.258 35.8972C184.258 37.6622 183.557 39.3549 182.309 40.6031L163.485 59.4403C162.866 60.0583 162.132 60.5484 161.323 60.8825C160.515 61.2166 159.649 61.3883 158.774 61.3876C157.008 61.3864 155.314 60.6835 154.066 59.4337C153.448 58.8148 152.958 58.0803 152.624 57.272C152.29 56.4637 152.118 55.5976 152.119 54.723C152.12 52.9566 152.823 51.2632 154.073 50.0151L172.897 31.1912C174.145 29.9433 175.838 29.2423 177.603 29.2423C179.368 29.2423 181.061 29.9433 182.309 31.1912ZM59.927 153.573C61.1749 154.821 61.8759 156.514 61.8759 158.279C61.8759 160.044 61.1749 161.737 59.927 162.985L41.1031 181.809C39.8477 183.021 38.1664 183.692 36.4211 183.677C34.6759 183.662 33.0064 182.962 31.7723 181.728C30.5381 180.494 29.8381 178.824 29.823 177.079C29.8078 175.334 30.4787 173.652 31.6912 172.397L50.5151 153.573C51.7633 152.325 53.456 151.624 55.221 151.624C56.986 151.624 58.6788 152.325 59.927 153.573ZM182.309 181.809C181.061 183.057 179.368 183.758 177.603 183.758C175.838 183.758 174.145 183.057 172.897 181.809L154.073 162.985C152.861 161.73 152.19 160.048 152.205 158.303C152.22 156.558 152.92 154.888 154.154 153.654C155.388 152.42 157.058 151.72 158.803 151.705C160.548 151.69 162.23 152.361 163.485 153.573L182.309 172.397C183.557 173.645 184.258 175.338 184.258 177.103C184.258 178.868 183.557 180.561 182.309 181.809ZM59.927 59.4403C58.6788 60.6882 56.986 61.3892 55.221 61.3892C53.456 61.3892 51.7633 60.6882 50.5151 59.4403L31.6912 40.6031C31.0554 39.9891 30.5484 39.2546 30.1995 38.4425C29.8507 37.6304 29.667 36.757 29.6594 35.8732C29.6517 34.9894 29.8201 34.1129 30.1548 33.2949C30.4895 32.4768 30.9837 31.7337 31.6087 31.1087C32.2337 30.4837 32.9768 29.9895 33.7949 29.6548C34.6129 29.3201 35.4894 29.1517 36.3732 29.1594C37.257 29.167 38.1304 29.3507 38.9425 29.6995C39.7546 30.0484 40.4891 30.5554 41.1031 31.1912L59.927 50.0151C60.5469 50.6334 61.0387 51.3679 61.3742 52.1766C61.7098 52.9852 61.8825 53.8522 61.8825 54.7277C61.8825 55.6032 61.7098 56.4701 61.3742 57.2788C61.0387 58.0875 60.5469 58.822 59.927 59.4403Z" fill="#FFCE97"/>
</svg>
