<svg width="34" height="78" viewBox="0 0 34 78" fill="none" xmlns="http://www.w3.org/2000/svg">
<path d="M24.2188 60.6575C24.2181 61.9807 23.8537 63.2784 23.1654 64.4085C22.4771 65.5387 21.4913 66.4579 20.3159 67.0658C19.1405 67.6736 17.8207 67.9467 16.5006 67.8551C15.1805 67.7636 13.911 67.3109 12.8307 66.5467C11.7505 65.7824 10.9011 64.7359 10.3754 63.5215C9.84967 62.3072 9.66786 60.9717 9.84983 59.661C10.0318 58.3503 10.5705 57.1148 11.4072 56.0896C12.2438 55.0644 13.3462 54.2889 14.5938 53.8478V31.7825C14.5938 31.1443 14.8473 30.5323 15.2985 30.081C15.7498 29.6297 16.3618 29.3762 17 29.3762C17.6382 29.3762 18.2502 29.6297 18.7015 30.081C19.1527 30.5323 19.4063 31.1443 19.4063 31.7825V53.8478C20.8143 54.3456 22.0333 55.2679 22.8952 56.4875C23.7571 57.7071 24.2195 59.164 24.2188 60.6575Z" fill="#019D8B" fill-opacity="0.25"/>
<path d="M4.96876 12.5325C4.96876 9.34159 6.23633 6.28139 8.49263 4.02509C10.7489 1.7688 13.8091 0.501221 17 0.501221C20.1909 0.501221 23.2511 1.7688 25.5074 4.02509C27.7637 6.28139 29.0313 9.34159 29.0313 12.5325V48.8668C31.3525 51.2359 32.9226 54.2376 33.5448 57.4955C34.1669 60.7534 33.8134 64.1224 32.5285 67.1802C31.2436 70.2379 29.0846 72.8483 26.3221 74.6839C23.5597 76.5196 20.3167 77.4988 17 77.4988C13.6833 77.4988 10.4403 76.5196 7.67788 74.6839C4.91542 72.8483 2.75638 70.2379 1.4715 67.1802C0.186623 64.1224 -0.166908 60.7534 0.45524 57.4955C1.07739 54.2376 2.64752 51.2359 4.96876 48.8668V12.5325ZM17 5.31372C15.0855 5.31372 13.2494 6.07427 11.8956 7.42804C10.5418 8.78182 9.78126 10.6179 9.78126 12.5325V50.9699L8.97757 51.6918C7.1612 53.3161 5.88086 55.4537 5.30598 57.8216C4.73109 60.1895 4.88877 62.6762 5.75815 64.9526C6.62752 67.2289 8.16761 69.1877 10.1746 70.5695C12.1816 71.9514 14.5609 72.6913 16.9976 72.6913C19.4343 72.6913 21.8136 71.9514 23.8206 70.5695C25.8276 69.1877 27.3677 67.2289 28.2371 64.9526C29.1064 62.6762 29.2641 60.1895 28.6892 57.8216C28.1143 55.4537 26.834 53.3161 25.0176 51.6918L24.2188 50.9699V12.5325C24.2188 10.6179 23.4582 8.78182 22.1044 7.42804C20.7507 6.07427 18.9145 5.31372 17 5.31372Z" fill="#019D8B" fill-opacity="0.25"/>
</svg>
