<svg width="57" height="50" viewBox="0 0 57 50" fill="none" xmlns="http://www.w3.org/2000/svg">
<path d="M44.25 3.57143C41.9294 3.57143 39.7038 4.51212 38.0628 6.18655C36.4219 7.86098 35.5 10.132 35.5 12.5C35.5 12.9736 35.3156 13.4278 34.9874 13.7627C34.6592 14.0976 34.2141 14.2857 33.75 14.2857C33.2859 14.2857 32.8407 14.0976 32.5126 13.7627C32.1844 13.4278 32 12.9736 32 12.5C32 10.0277 32.7184 7.61099 34.0645 5.55538C35.4105 3.49976 37.3237 1.89761 39.5621 0.951511C41.8005 0.00541605 44.2636 -0.242126 46.6399 0.24019C49.0161 0.722505 51.1989 1.91301 52.9121 3.66117C54.6252 5.40933 55.7919 7.63661 56.2646 10.0614C56.7373 12.4861 56.4947 14.9995 55.5675 17.2835C54.6403 19.5676 53.0702 21.5199 51.0557 22.8934C49.0412 24.2669 46.6728 25 44.25 25H2.25C1.78587 25 1.34075 24.8119 1.01256 24.477C0.684374 24.1421 0.5 23.6879 0.5 23.2143C0.5 22.7407 0.684374 22.2865 1.01256 21.9516C1.34075 21.6167 1.78587 21.4286 2.25 21.4286H44.25C46.5706 21.4286 48.7962 20.4879 50.4372 18.8135C52.0781 17.139 53 14.868 53 12.5C53 10.132 52.0781 7.86098 50.4372 6.18655C48.7962 4.51212 46.5706 3.57143 44.25 3.57143ZM19.75 7.14286C18.8217 7.14286 17.9315 7.51913 17.2751 8.18891C16.6187 8.85868 16.25 9.76709 16.25 10.7143C16.25 11.1879 16.0656 11.6421 15.7374 11.977C15.4092 12.3119 14.9641 12.5 14.5 12.5C14.0359 12.5 13.5908 12.3119 13.2626 11.977C12.9344 11.6421 12.75 11.1879 12.75 10.7143C12.75 9.30157 13.1605 7.92057 13.9297 6.74593C14.6989 5.57129 15.7921 4.65578 17.0712 4.11515C18.3503 3.57452 19.7578 3.43307 21.1156 3.70868C22.4735 3.98429 23.7208 4.66458 24.6997 5.66353C25.6787 6.66247 26.3454 7.93521 26.6155 9.32079C26.8856 10.7064 26.747 12.1426 26.2172 13.4477C25.6873 14.7529 24.7901 15.8685 23.639 16.6534C22.4878 17.4382 21.1345 17.8571 19.75 17.8571H2.25C1.78587 17.8571 1.34075 17.669 1.01256 17.3341C0.684374 16.9992 0.5 16.545 0.5 16.0714C0.5 15.5978 0.684374 15.1436 1.01256 14.8087C1.34075 14.4739 1.78587 14.2857 2.25 14.2857H19.75C20.6783 14.2857 21.5685 13.9094 22.2249 13.2397C22.8812 12.5699 23.25 11.6615 23.25 10.7143C23.25 9.76709 22.8812 8.85868 22.2249 8.18891C21.5685 7.51913 20.6783 7.14286 19.75 7.14286ZM0.5 30.3571C0.5 29.8835 0.684374 29.4293 1.01256 29.0944C1.34075 28.7596 1.78587 28.5714 2.25 28.5714H37.397C39.4737 28.5714 41.5038 29.1998 43.2305 30.3771C44.9572 31.5544 46.303 33.2278 47.0977 35.1855C47.8925 37.1433 48.1004 39.2976 47.6952 41.376C47.2901 43.4543 46.2901 45.3634 44.8216 46.8619C43.3532 48.3603 41.4822 49.3807 39.4454 49.7941C37.4086 50.2075 35.2974 49.9954 33.3788 49.1844C31.4602 48.3735 29.8203 47.0002 28.6666 45.2382C27.5128 43.4763 26.897 41.4048 26.897 39.2857C26.897 38.8121 27.0814 38.3579 27.4096 38.023C27.7377 37.6881 28.1829 37.5 28.647 37.5C29.1111 37.5 29.5562 37.6881 29.8844 38.023C30.2126 38.3579 30.397 38.8121 30.397 39.2857C30.397 40.6984 30.8075 42.0794 31.5767 43.2541C32.3459 44.4287 33.4391 45.3442 34.7182 45.8848C35.9973 46.4255 37.4048 46.5669 38.7626 46.2913C40.1205 46.0157 41.3678 45.3354 42.3467 44.3365C43.3257 43.3375 43.9924 42.0648 44.2625 40.6792C44.5326 39.2936 44.394 37.8574 43.8642 36.5523C43.3343 35.2471 42.4371 34.1315 41.286 33.3466C40.1348 32.5618 38.7815 32.1429 37.397 32.1429H2.25C1.78587 32.1429 1.34075 31.9547 1.01256 31.6198C0.684374 31.2849 0.5 30.8307 0.5 30.3571Z" fill="#019D8B" fill-opacity="0.25"/>
</svg>
